<svg width="32" height="32" viewBox="0 0 32 32" fill="none" xmlns="http://www.w3.org/2000/svg">
<path d="M22.1251 23.1111H29.1118C28.5251 15.3688 25.1918 10.5599 20.9163 7.7155L22.8629 3.46661C22.9218 3.33179 22.9462 3.18447 22.9341 3.03786C22.922 2.89125 22.8737 2.74994 22.7935 2.6266C22.7134 2.50326 22.6038 2.40175 22.4748 2.33116C22.3457 2.26058 22.2011 2.22313 22.054 2.22217H9.86736C9.72026 2.22313 9.57569 2.26058 9.44663 2.33116C9.31756 2.40175 9.20803 2.50326 9.12786 2.6266C9.04769 2.74994 8.99938 2.89125 8.98727 3.03786C8.97516 3.18447 8.99963 3.33179 9.05847 3.46661L10.1251 5.77772H19.1207L18.3207 7.5555H16.6763C17.1785 8.90594 17.5476 10.3022 17.7785 11.7244C17.928 12.6066 18.023 13.4972 18.0629 14.3911L16.6585 15.3777C16.6623 14.228 16.5671 13.08 16.374 11.9466C16.1284 10.4381 15.7047 8.96414 15.1118 7.5555H14.2229C13.4026 8.592 12.6655 9.69172 12.0185 10.8444C11.4968 11.8331 11.0539 12.8615 10.694 13.9199L9.47625 13.1111C9.83171 12.0881 10.2687 11.0953 10.7829 10.1422C11.3025 9.24842 11.8723 8.38482 12.4896 7.5555H10.934L11.0051 7.70661C6.29403 10.8444 2.71181 16.3555 2.71181 25.5555C2.69979 25.7489 2.72622 25.9427 2.78956 26.1259C2.8529 26.309 2.9519 26.4777 3.08083 26.6224C3.20977 26.767 3.36608 26.8847 3.54075 26.9685C3.71542 27.0524 3.90498 27.1009 4.09847 27.1111H11.2096C10.9042 26.7933 10.6934 26.3967 10.6007 25.9659C10.508 25.535 10.5371 25.0869 10.6848 24.6716C10.8324 24.2564 11.0928 23.8904 11.4367 23.6148C11.7805 23.3392 12.1944 23.1648 12.6318 23.1111C12.4189 22.75 12.3055 22.3391 12.3029 21.9199C12.3029 21.2834 12.5558 20.673 13.0059 20.2229C13.4559 19.7728 14.0664 19.5199 14.7029 19.5199H20.0362C20.6728 19.5199 21.2832 19.7728 21.7333 20.2229C22.1834 20.673 22.4362 21.2834 22.4362 21.9199C22.4408 22.3376 22.3334 22.7489 22.1251 23.1111Z" fill="#D7263D"/>
<path d="M19.201 25.3332C19.201 25.0975 19.1073 24.8714 18.9406 24.7047C18.7739 24.538 18.5478 24.4443 18.3121 24.4443H12.9787C12.743 24.4443 12.5169 24.538 12.3502 24.7047C12.1835 24.8714 12.0898 25.0975 12.0898 25.3332C12.0898 25.569 12.1835 25.7951 12.3502 25.9618C12.5169 26.1285 12.743 26.2221 12.9787 26.2221H18.3121C18.5478 26.2221 18.7739 26.1285 18.9406 25.9618C19.1073 25.7951 19.201 25.569 19.201 25.3332Z" fill="#D7263D"/>
<path d="M20.0347 20.8889H14.7014C14.4656 20.8889 14.2395 20.9826 14.0728 21.1493C13.9062 21.316 13.8125 21.5421 13.8125 21.7778C13.8125 22.0136 13.9062 22.2396 14.0728 22.4063C14.2395 22.573 14.4656 22.6667 14.7014 22.6667H20.0347C20.2705 22.6667 20.4966 22.573 20.6633 22.4063C20.83 22.2396 20.9236 22.0136 20.9236 21.7778C20.9236 21.5421 20.83 21.316 20.6633 21.1493C20.4966 20.9826 20.2705 20.8889 20.0347 20.8889Z" fill="#D7263D"/>
<path d="M19.5562 28H14.2229C13.9871 28 13.761 28.0936 13.5943 28.2603C13.4276 28.427 13.334 28.6531 13.334 28.8889C13.334 29.1246 13.4276 29.3507 13.5943 29.5174C13.761 29.6841 13.9871 29.7778 14.2229 29.7778H19.5562C19.792 29.7778 20.018 29.6841 20.1847 29.5174C20.3514 29.3507 20.4451 29.1246 20.4451 28.8889C20.4451 28.6531 20.3514 28.427 20.1847 28.2603C20.018 28.0936 19.792 28 19.5562 28Z" fill="#D7263D"/>
<path d="M29.0662 28H22.844C22.6082 28 22.3821 28.0936 22.2154 28.2603C22.0487 28.427 21.9551 28.6531 21.9551 28.8889C21.9551 29.1246 22.0487 29.3507 22.2154 29.5174C22.3821 29.6841 22.6082 29.7778 22.844 29.7778H29.0662C29.3019 29.7778 29.528 29.6841 29.6947 29.5174C29.8614 29.3507 29.9551 29.1246 29.9551 28.8889C29.9551 28.6531 29.8614 28.427 29.6947 28.2603C29.528 28.0936 29.3019 28 29.0662 28Z" fill="#D7263D"/>
<path d="M29.9549 24.4443H23.7326C23.4969 24.4443 23.2708 24.538 23.1041 24.7047C22.9374 24.8714 22.8438 25.0975 22.8438 25.3332C22.8438 25.569 22.9374 25.7951 23.1041 25.9618C23.2708 26.1285 23.4969 26.2221 23.7326 26.2221H29.9549C30.1906 26.2221 30.4167 26.1285 30.5834 25.9618C30.7501 25.7951 30.8438 25.569 30.8438 25.3332C30.8438 25.0975 30.7501 24.8714 30.5834 24.7047C30.4167 24.538 30.1906 24.4443 29.9549 24.4443Z" fill="#D7263D"/>
</svg>
