<svg width="28" height="28" viewBox="0 0 28 28" fill="none" xmlns="http://www.w3.org/2000/svg">
<path d="M26.4207 3.40665C24.074 2.63732 17.9994 0.646654 17.9994 0.666654C17.9994 1.72752 17.5779 2.74494 16.8278 3.49508C16.0777 4.24523 15.0602 4.66665 13.9994 4.66665C12.9385 4.66665 11.9211 4.24523 11.1709 3.49508C10.4208 2.74494 9.99937 1.72752 9.99937 0.666654C9.99937 0.646654 3.9247 2.63732 1.5767 3.40665C1.31068 3.49385 1.07918 3.66321 0.915529 3.89035C0.751882 4.1175 0.664525 4.3907 0.666035 4.67065V9.62532C0.666091 9.82785 0.712284 10.0277 0.801109 10.2097C0.889934 10.3917 1.01906 10.5511 1.17867 10.6758C1.33829 10.8004 1.52421 10.8871 1.72232 10.9292C1.92043 10.9713 2.12552 10.9677 2.32204 10.9187L5.99937 9.99999V26C5.99937 26.3536 6.13984 26.6927 6.38989 26.9428C6.63994 27.1928 6.97908 27.3333 7.3327 27.3333H20.666C21.0197 27.3333 21.3588 27.1928 21.6088 26.9428C21.8589 26.6927 21.9994 26.3536 21.9994 26V9.99999L25.6767 10.9187C25.8732 10.9677 26.0783 10.9713 26.2764 10.9292C26.4745 10.8871 26.6604 10.8004 26.8201 10.6758C26.9797 10.5511 27.1088 10.3917 27.1976 10.2097C27.2865 10.0277 27.3326 9.82785 27.3327 9.62532V4.67065C27.3341 4.39054 27.2466 4.11721 27.0827 3.89004C26.9188 3.66288 26.687 3.49362 26.4207 3.40665Z" fill="#D7263D"/>
</svg>
